G04 #@! TF.GenerationSoftware,KiCad,Pcbnew,5.1.5-1.fc31*
G04 #@! TF.CreationDate,2020-04-27T21:55:51+02:00*
G04 #@! TF.ProjectId,vdsl-surge-protection-copy,7664736c-2d73-4757-9267-652d70726f74,rev?*
G04 #@! TF.SameCoordinates,Original*
G04 #@! TF.FileFunction,Profile,NP*
%FSLAX46Y46*%
G04 Gerber Fmt 4.6, Leading zero omitted, Abs format (unit mm)*
G04 Created by KiCad (PCBNEW 5.1.5-1.fc31) date 2020-04-27 21:55:51*
%MOMM*%
%LPD*%
G04 APERTURE LIST*
%ADD10C,0.050000*%
G04 APERTURE END LIST*
D10*
X219300000Y-47550000D02*
X224400000Y-47550000D01*
X216400000Y-47550000D02*
X212700000Y-47550000D01*
X216900000Y-45800000D02*
X218800000Y-45800000D01*
X216400000Y-47550000D02*
X216400000Y-46300000D01*
X219300000Y-46300000D02*
X219300000Y-47550000D01*
X218800000Y-45800000D02*
G75*
G02X219300000Y-46300000I0J-500000D01*
G01*
X216400000Y-46300000D02*
G75*
G02X216900000Y-45800000I500000J0D01*
G01*
X224900000Y-56750000D02*
X224900000Y-48050000D01*
X212700000Y-57250000D02*
X224400000Y-57250000D01*
X212200000Y-48050000D02*
X212200000Y-56750000D01*
X212200000Y-48050000D02*
G75*
G02X212700000Y-47550000I500000J0D01*
G01*
X224400000Y-47550000D02*
G75*
G02X224900000Y-48050000I0J-500000D01*
G01*
X224900000Y-56750000D02*
G75*
G02X224400000Y-57250000I-500000J0D01*
G01*
X212700000Y-57250000D02*
G75*
G02X212200000Y-56750000I0J500000D01*
G01*
X191150000Y-43050000D02*
X191150000Y-56750000D01*
X208350000Y-42550000D02*
X191650000Y-42550000D01*
X208850000Y-56750000D02*
X208850000Y-43050000D01*
X191650000Y-57250000D02*
X208350000Y-57250000D01*
X191650000Y-57250000D02*
G75*
G02X191150000Y-56750000I0J500000D01*
G01*
X208850000Y-56750000D02*
G75*
G02X208350000Y-57250000I-500000J0D01*
G01*
X208350000Y-42550000D02*
G75*
G02X208850000Y-43050000I0J-500000D01*
G01*
X191150000Y-43050000D02*
G75*
G02X191650000Y-42550000I500000J0D01*
G01*
X228500000Y-62750000D02*
X171500000Y-62750000D01*
X171500000Y-40000000D02*
X228500000Y-40000000D01*
X170000000Y-61250000D02*
X170000000Y-41500000D01*
X230000000Y-61250000D02*
X230000000Y-41500000D01*
X230000000Y-61250000D02*
G75*
G02X228500000Y-62750000I-1500000J0D01*
G01*
X171500000Y-62750000D02*
G75*
G02X170000000Y-61250000I0J1500000D01*
G01*
X228500000Y-40000000D02*
G75*
G02X230000000Y-41500000I0J-1500000D01*
G01*
X170000000Y-41500000D02*
G75*
G02X171500000Y-40000000I1500000J0D01*
G01*
M02*
