G04 #@! TF.GenerationSoftware,KiCad,Pcbnew,5.1.5-1.fc31*
G04 #@! TF.CreationDate,2020-04-27T21:51:00+02:00*
G04 #@! TF.ProjectId,vdsl-surge-protection-copy,7664736c-2d73-4757-9267-652d70726f74,rev?*
G04 #@! TF.SameCoordinates,Original*
G04 #@! TF.FileFunction,Copper,L2,Bot*
G04 #@! TF.FilePolarity,Positive*
%FSLAX46Y46*%
G04 Gerber Fmt 4.6, Leading zero omitted, Abs format (unit mm)*
G04 Created by KiCad (PCBNEW 5.1.5-1.fc31) date 2020-04-27 21:51:00*
%MOMM*%
%LPD*%
G04 APERTURE LIST*
%ADD10C,1.398000*%
%ADD11C,2.355000*%
%ADD12R,1.398000X1.398000*%
%ADD13C,2.500000*%
%ADD14R,2.999740X2.999740*%
%ADD15C,2.999740*%
%ADD16C,0.800000*%
%ADD17C,7.400000*%
%ADD18C,0.600000*%
%ADD19C,0.250000*%
%ADD20C,0.254000*%
G04 APERTURE END LIST*
D10*
X51520000Y-91490000D03*
X49740000Y-92510000D03*
X51520000Y-93530000D03*
X49740000Y-94550000D03*
X51520000Y-95570000D03*
X49740000Y-96590000D03*
X51520000Y-97610000D03*
D11*
X50630000Y-103180000D03*
X50630000Y-86920000D03*
D12*
X49740000Y-98630000D03*
D10*
X120510000Y-98560000D03*
X122290000Y-97540000D03*
X120510000Y-96520000D03*
X122290000Y-95500000D03*
X120510000Y-94480000D03*
X122290000Y-93460000D03*
X120510000Y-92440000D03*
D11*
X121400000Y-86870000D03*
X121400000Y-103130000D03*
D12*
X122290000Y-91420000D03*
D13*
X84750000Y-95250000D03*
X84750000Y-90850000D03*
X84750000Y-99650000D03*
D14*
X120500000Y-73920000D03*
D15*
X120500000Y-79000000D03*
D16*
X60962221Y-107037779D03*
X59000000Y-106225000D03*
X57037779Y-107037779D03*
X56225000Y-109000000D03*
X57037779Y-110962221D03*
X59000000Y-111775000D03*
X60962221Y-110962221D03*
X61775000Y-109000000D03*
D17*
X59000000Y-109000000D03*
X113000000Y-81000000D03*
D16*
X115775000Y-81000000D03*
X114962221Y-82962221D03*
X113000000Y-83775000D03*
X111037779Y-82962221D03*
X110225000Y-81000000D03*
X111037779Y-79037779D03*
X113000000Y-78225000D03*
X114962221Y-79037779D03*
D17*
X59000000Y-81000000D03*
D16*
X61775000Y-81000000D03*
X60962221Y-82962221D03*
X59000000Y-83775000D03*
X57037779Y-82962221D03*
X56225000Y-81000000D03*
X57037779Y-79037779D03*
X59000000Y-78225000D03*
X60962221Y-79037779D03*
X114962221Y-107037779D03*
X113000000Y-106225000D03*
X111037779Y-107037779D03*
X110225000Y-109000000D03*
X111037779Y-110962221D03*
X113000000Y-111775000D03*
X114962221Y-110962221D03*
X115775000Y-109000000D03*
D17*
X113000000Y-109000000D03*
D16*
X93250000Y-95250000D03*
X93250000Y-94500000D03*
X93250000Y-96000000D03*
D18*
X71000000Y-109000000D02*
X84750000Y-95250000D01*
X59000000Y-109000000D02*
X71000000Y-109000000D01*
X93250000Y-95250000D02*
X84750000Y-95250000D01*
X106250000Y-109000000D02*
X93250000Y-96000000D01*
X113000000Y-109000000D02*
X106250000Y-109000000D01*
X99500000Y-94500000D02*
X113000000Y-81000000D01*
X93250000Y-94500000D02*
X99500000Y-94500000D01*
X115020000Y-78980000D02*
X113000000Y-81000000D01*
X120000000Y-78980000D02*
X115020000Y-78980000D01*
X120000000Y-78980000D02*
X120000000Y-73900000D01*
X59000000Y-109000000D02*
X59000000Y-81000000D01*
D19*
X53080000Y-86920000D02*
X59000000Y-81000000D01*
X50630000Y-86920000D02*
X53080000Y-86920000D01*
X53180000Y-103180000D02*
X59000000Y-109000000D01*
X50630000Y-103180000D02*
X53180000Y-103180000D01*
X118870000Y-103130000D02*
X113000000Y-109000000D01*
X121400000Y-103130000D02*
X118870000Y-103130000D01*
X114856155Y-82856155D02*
X113000000Y-81000000D01*
X121400000Y-86870000D02*
X117386155Y-82856155D01*
X117386155Y-82856155D02*
X114856155Y-82856155D01*
D20*
G36*
X60840001Y-70782419D02*
G01*
X60842988Y-70812744D01*
X60842813Y-70837743D01*
X60843713Y-70846914D01*
X60925315Y-71623302D01*
X60937338Y-71681871D01*
X60948551Y-71740657D01*
X60951215Y-71749479D01*
X61182063Y-72495229D01*
X61205238Y-72550359D01*
X61227652Y-72605838D01*
X61231979Y-72613974D01*
X61603282Y-73300684D01*
X61636727Y-73350268D01*
X61669487Y-73400331D01*
X61675311Y-73407472D01*
X62172924Y-74008983D01*
X62215376Y-74051140D01*
X62257223Y-74093873D01*
X62264318Y-74099741D01*
X62264324Y-74099747D01*
X62264331Y-74099751D01*
X62869294Y-74593148D01*
X62919087Y-74626230D01*
X62968476Y-74660048D01*
X62976583Y-74664430D01*
X63665867Y-75030930D01*
X63721182Y-75053729D01*
X63776154Y-75077290D01*
X63784957Y-75080015D01*
X64532302Y-75305652D01*
X64591011Y-75317277D01*
X64649494Y-75329708D01*
X64658657Y-75330671D01*
X64658659Y-75330671D01*
X65435596Y-75406850D01*
X65464418Y-75406850D01*
X65493077Y-75409964D01*
X65502293Y-75409996D01*
X65530217Y-75409899D01*
X65558905Y-75406985D01*
X65587743Y-75407187D01*
X65596914Y-75406287D01*
X66373302Y-75324685D01*
X66431871Y-75312662D01*
X66490657Y-75301449D01*
X66499479Y-75298785D01*
X67245229Y-75067937D01*
X67300359Y-75044762D01*
X67355838Y-75022348D01*
X67363974Y-75018021D01*
X68050684Y-74646718D01*
X68100268Y-74613273D01*
X68150331Y-74580513D01*
X68157472Y-74574689D01*
X68758983Y-74077076D01*
X68801140Y-74034624D01*
X68843873Y-73992777D01*
X68849741Y-73985682D01*
X68849747Y-73985676D01*
X68849751Y-73985669D01*
X69343148Y-73380706D01*
X69376230Y-73330913D01*
X69410048Y-73281524D01*
X69414430Y-73273417D01*
X69780930Y-72584133D01*
X69803729Y-72528818D01*
X69827290Y-72473846D01*
X69830015Y-72465043D01*
X70055652Y-71717698D01*
X70067277Y-71658989D01*
X70079708Y-71600506D01*
X70080671Y-71591341D01*
X70156850Y-70814404D01*
X70156850Y-70814402D01*
X70160000Y-70782419D01*
X70160000Y-67410000D01*
X101840000Y-67410000D01*
X101840001Y-70782419D01*
X101842988Y-70812744D01*
X101842813Y-70837743D01*
X101843713Y-70846914D01*
X101925315Y-71623302D01*
X101937338Y-71681871D01*
X101948551Y-71740657D01*
X101951215Y-71749479D01*
X102182063Y-72495229D01*
X102205238Y-72550359D01*
X102227652Y-72605838D01*
X102231979Y-72613974D01*
X102603282Y-73300684D01*
X102636727Y-73350268D01*
X102669487Y-73400331D01*
X102675311Y-73407472D01*
X103172924Y-74008983D01*
X103215376Y-74051140D01*
X103257223Y-74093873D01*
X103264318Y-74099741D01*
X103264324Y-74099747D01*
X103264331Y-74099751D01*
X103869294Y-74593148D01*
X103919087Y-74626230D01*
X103968476Y-74660048D01*
X103976583Y-74664430D01*
X104665867Y-75030930D01*
X104721182Y-75053729D01*
X104776154Y-75077290D01*
X104784957Y-75080015D01*
X105532302Y-75305652D01*
X105591011Y-75317277D01*
X105649494Y-75329708D01*
X105658657Y-75330671D01*
X105658659Y-75330671D01*
X106435596Y-75406850D01*
X106464418Y-75406850D01*
X106493077Y-75409964D01*
X106502293Y-75409996D01*
X106530217Y-75409899D01*
X106558905Y-75406985D01*
X106587743Y-75407187D01*
X106596914Y-75406287D01*
X107373302Y-75324685D01*
X107431871Y-75312662D01*
X107490657Y-75301449D01*
X107499479Y-75298785D01*
X108245229Y-75067937D01*
X108300359Y-75044762D01*
X108355838Y-75022348D01*
X108363974Y-75018021D01*
X109050684Y-74646718D01*
X109100268Y-74613273D01*
X109150331Y-74580513D01*
X109157472Y-74574689D01*
X109758983Y-74077076D01*
X109801140Y-74034624D01*
X109843873Y-73992777D01*
X109849741Y-73985682D01*
X109849747Y-73985676D01*
X109849751Y-73985669D01*
X110343148Y-73380706D01*
X110376230Y-73330913D01*
X110410048Y-73281524D01*
X110414430Y-73273417D01*
X110780930Y-72584133D01*
X110803729Y-72528818D01*
X110827290Y-72473846D01*
X110830015Y-72465043D01*
X111055652Y-71717698D01*
X111067277Y-71658989D01*
X111079708Y-71600506D01*
X111080671Y-71591341D01*
X111156850Y-70814404D01*
X111156850Y-70814402D01*
X111160000Y-70782419D01*
X111160000Y-67410000D01*
X126590000Y-67410000D01*
X126590000Y-87216135D01*
X126585456Y-87209334D01*
X126270666Y-86894544D01*
X125900511Y-86647214D01*
X125489218Y-86476851D01*
X125052591Y-86390000D01*
X124607409Y-86390000D01*
X124170782Y-86476851D01*
X123759489Y-86647214D01*
X123389334Y-86894544D01*
X123074544Y-87209334D01*
X122827214Y-87579489D01*
X122656851Y-87990782D01*
X122570000Y-88427409D01*
X122570000Y-88872591D01*
X122656851Y-89309218D01*
X122827214Y-89720511D01*
X123074544Y-90090666D01*
X123075306Y-90091428D01*
X122989000Y-90082928D01*
X121591000Y-90082928D01*
X121466518Y-90095188D01*
X121346820Y-90131498D01*
X121236506Y-90190463D01*
X121139815Y-90269815D01*
X121060463Y-90366506D01*
X121001498Y-90476820D01*
X120965188Y-90596518D01*
X120952928Y-90721000D01*
X120952928Y-91179555D01*
X120899114Y-91157265D01*
X120641388Y-91106000D01*
X120378612Y-91106000D01*
X120120886Y-91157265D01*
X119878114Y-91257824D01*
X119659624Y-91403814D01*
X119473814Y-91589624D01*
X119327824Y-91808114D01*
X119227265Y-92050886D01*
X119176000Y-92308612D01*
X119176000Y-92571388D01*
X119227265Y-92829114D01*
X119327824Y-93071886D01*
X119473814Y-93290376D01*
X119643438Y-93460000D01*
X119473814Y-93629624D01*
X119327824Y-93848114D01*
X119227265Y-94090886D01*
X119176000Y-94348612D01*
X119176000Y-94611388D01*
X119227265Y-94869114D01*
X119327824Y-95111886D01*
X119473814Y-95330376D01*
X119643438Y-95500000D01*
X119473814Y-95669624D01*
X119327824Y-95888114D01*
X119227265Y-96130886D01*
X119176000Y-96388612D01*
X119176000Y-96651388D01*
X119227265Y-96909114D01*
X119327824Y-97151886D01*
X119473814Y-97370376D01*
X119643438Y-97540000D01*
X119473814Y-97709624D01*
X119327824Y-97928114D01*
X119227265Y-98170886D01*
X119176000Y-98428612D01*
X119176000Y-98691388D01*
X119227265Y-98949114D01*
X119327824Y-99191886D01*
X119473814Y-99410376D01*
X119659624Y-99596186D01*
X119878114Y-99742176D01*
X120120886Y-99842735D01*
X120378612Y-99894000D01*
X120641388Y-99894000D01*
X120899114Y-99842735D01*
X121141886Y-99742176D01*
X121360376Y-99596186D01*
X121546186Y-99410376D01*
X121692176Y-99191886D01*
X121792735Y-98949114D01*
X121824192Y-98790968D01*
X121900886Y-98822735D01*
X122158612Y-98874000D01*
X122421388Y-98874000D01*
X122679114Y-98822735D01*
X122921886Y-98722176D01*
X123140376Y-98576186D01*
X123326186Y-98390376D01*
X123472176Y-98171886D01*
X123572735Y-97929114D01*
X123624000Y-97671388D01*
X123624000Y-97408612D01*
X123572735Y-97150886D01*
X123472176Y-96908114D01*
X123326186Y-96689624D01*
X123156562Y-96520000D01*
X123326186Y-96350376D01*
X123472176Y-96131886D01*
X123572735Y-95889114D01*
X123624000Y-95631388D01*
X123624000Y-95368612D01*
X123572735Y-95110886D01*
X123472176Y-94868114D01*
X123326186Y-94649624D01*
X123156562Y-94480000D01*
X123326186Y-94310376D01*
X123472176Y-94091886D01*
X123572735Y-93849114D01*
X123624000Y-93591388D01*
X123624000Y-93328612D01*
X123572735Y-93070886D01*
X123472176Y-92828114D01*
X123349540Y-92644575D01*
X123440185Y-92570185D01*
X123519537Y-92473494D01*
X123578502Y-92363180D01*
X123614812Y-92243482D01*
X123627072Y-92119000D01*
X123627072Y-90721000D01*
X123614812Y-90596518D01*
X123599440Y-90545845D01*
X123759489Y-90652786D01*
X124170782Y-90823149D01*
X124607409Y-90910000D01*
X125052591Y-90910000D01*
X125489218Y-90823149D01*
X125900511Y-90652786D01*
X126270666Y-90405456D01*
X126585456Y-90090666D01*
X126590000Y-90083865D01*
X126590001Y-99916135D01*
X126585456Y-99909334D01*
X126270666Y-99594544D01*
X125900511Y-99347214D01*
X125489218Y-99176851D01*
X125052591Y-99090000D01*
X124607409Y-99090000D01*
X124170782Y-99176851D01*
X123759489Y-99347214D01*
X123389334Y-99594544D01*
X123074544Y-99909334D01*
X122827214Y-100279489D01*
X122656851Y-100690782D01*
X122570000Y-101127409D01*
X122570000Y-101572591D01*
X122656851Y-102009218D01*
X122827214Y-102420511D01*
X123074544Y-102790666D01*
X123389334Y-103105456D01*
X123759489Y-103352786D01*
X124170782Y-103523149D01*
X124607409Y-103610000D01*
X125052591Y-103610000D01*
X125489218Y-103523149D01*
X125900511Y-103352786D01*
X126270666Y-103105456D01*
X126585456Y-102790666D01*
X126590001Y-102783864D01*
X126590001Y-122590000D01*
X111160000Y-122590000D01*
X111160000Y-119217581D01*
X111157012Y-119187247D01*
X111157187Y-119162257D01*
X111156287Y-119153086D01*
X111074685Y-118376699D01*
X111062658Y-118318106D01*
X111051448Y-118259342D01*
X111048785Y-118250520D01*
X110817937Y-117504771D01*
X110794749Y-117449608D01*
X110772347Y-117394162D01*
X110768021Y-117386026D01*
X110396718Y-116699316D01*
X110363279Y-116649741D01*
X110330514Y-116599670D01*
X110324689Y-116592529D01*
X109827076Y-115991017D01*
X109784621Y-115948858D01*
X109742776Y-115906127D01*
X109735676Y-115900253D01*
X109130705Y-115406852D01*
X109080904Y-115373764D01*
X109031524Y-115339953D01*
X109023418Y-115335570D01*
X108334133Y-114969071D01*
X108278839Y-114946280D01*
X108223846Y-114922710D01*
X108215043Y-114919985D01*
X107467698Y-114694348D01*
X107408995Y-114682725D01*
X107350506Y-114670292D01*
X107341342Y-114669329D01*
X106564404Y-114593150D01*
X106535582Y-114593150D01*
X106506922Y-114590036D01*
X106497707Y-114590004D01*
X106469782Y-114590101D01*
X106441095Y-114593014D01*
X106412257Y-114592813D01*
X106403086Y-114593713D01*
X105626699Y-114675315D01*
X105568106Y-114687342D01*
X105509342Y-114698552D01*
X105500520Y-114701215D01*
X104754771Y-114932063D01*
X104699608Y-114955251D01*
X104644162Y-114977653D01*
X104636026Y-114981979D01*
X103949316Y-115353282D01*
X103899741Y-115386721D01*
X103849670Y-115419486D01*
X103842529Y-115425311D01*
X103241017Y-115922924D01*
X103198863Y-115965374D01*
X103156127Y-116007224D01*
X103150253Y-116014324D01*
X102656852Y-116619295D01*
X102623764Y-116669096D01*
X102589953Y-116718476D01*
X102585570Y-116726582D01*
X102219071Y-117415867D01*
X102196280Y-117471161D01*
X102172710Y-117526154D01*
X102169985Y-117534957D01*
X101944348Y-118282302D01*
X101932725Y-118341005D01*
X101920292Y-118399494D01*
X101919329Y-118408658D01*
X101843150Y-119185596D01*
X101843150Y-119185608D01*
X101840001Y-119217581D01*
X101840000Y-122590000D01*
X70160000Y-122590000D01*
X70160000Y-119217581D01*
X70157012Y-119187247D01*
X70157187Y-119162257D01*
X70156287Y-119153086D01*
X70074685Y-118376699D01*
X70062658Y-118318106D01*
X70051448Y-118259342D01*
X70048785Y-118250520D01*
X69817937Y-117504771D01*
X69794749Y-117449608D01*
X69772347Y-117394162D01*
X69768021Y-117386026D01*
X69396718Y-116699316D01*
X69363279Y-116649741D01*
X69330514Y-116599670D01*
X69324689Y-116592529D01*
X68827076Y-115991017D01*
X68784621Y-115948858D01*
X68742776Y-115906127D01*
X68735676Y-115900253D01*
X68130705Y-115406852D01*
X68080904Y-115373764D01*
X68031524Y-115339953D01*
X68023418Y-115335570D01*
X67334133Y-114969071D01*
X67278839Y-114946280D01*
X67223846Y-114922710D01*
X67215043Y-114919985D01*
X66467698Y-114694348D01*
X66408995Y-114682725D01*
X66350506Y-114670292D01*
X66341342Y-114669329D01*
X65564404Y-114593150D01*
X65535582Y-114593150D01*
X65506922Y-114590036D01*
X65497707Y-114590004D01*
X65469782Y-114590101D01*
X65441095Y-114593014D01*
X65412257Y-114592813D01*
X65403086Y-114593713D01*
X64626699Y-114675315D01*
X64568106Y-114687342D01*
X64509342Y-114698552D01*
X64500520Y-114701215D01*
X63754771Y-114932063D01*
X63699608Y-114955251D01*
X63644162Y-114977653D01*
X63636026Y-114981979D01*
X62949316Y-115353282D01*
X62899741Y-115386721D01*
X62849670Y-115419486D01*
X62842529Y-115425311D01*
X62241017Y-115922924D01*
X62198863Y-115965374D01*
X62156127Y-116007224D01*
X62150253Y-116014324D01*
X61656852Y-116619295D01*
X61623764Y-116669096D01*
X61589953Y-116718476D01*
X61585570Y-116726582D01*
X61219071Y-117415867D01*
X61196280Y-117471161D01*
X61172710Y-117526154D01*
X61169985Y-117534957D01*
X60944348Y-118282302D01*
X60932725Y-118341005D01*
X60920292Y-118399494D01*
X60919329Y-118408658D01*
X60843150Y-119185596D01*
X60843150Y-119185608D01*
X60840001Y-119217581D01*
X60840000Y-122590000D01*
X45410000Y-122590000D01*
X45410000Y-102788967D01*
X45444544Y-102840666D01*
X45759334Y-103155456D01*
X46129489Y-103402786D01*
X46540782Y-103573149D01*
X46977409Y-103660000D01*
X47422591Y-103660000D01*
X47859218Y-103573149D01*
X48270511Y-103402786D01*
X48640666Y-103155456D01*
X48955456Y-102840666D01*
X49202786Y-102470511D01*
X49373149Y-102059218D01*
X49460000Y-101622591D01*
X49460000Y-101177409D01*
X49373149Y-100740782D01*
X49202786Y-100329489D01*
X48955456Y-99959334D01*
X48954694Y-99958572D01*
X49041000Y-99967072D01*
X50439000Y-99967072D01*
X50563482Y-99954812D01*
X50683180Y-99918502D01*
X50793494Y-99859537D01*
X50890185Y-99780185D01*
X50969537Y-99683494D01*
X51028502Y-99573180D01*
X51061517Y-99464344D01*
X82865000Y-99464344D01*
X82865000Y-99835656D01*
X82937439Y-100199834D01*
X83079534Y-100542882D01*
X83285825Y-100851618D01*
X83548382Y-101114175D01*
X83857118Y-101320466D01*
X84200166Y-101462561D01*
X84564344Y-101535000D01*
X84935656Y-101535000D01*
X85299834Y-101462561D01*
X85642882Y-101320466D01*
X85951618Y-101114175D01*
X86214175Y-100851618D01*
X86420466Y-100542882D01*
X86562561Y-100199834D01*
X86635000Y-99835656D01*
X86635000Y-99464344D01*
X86562561Y-99100166D01*
X86420466Y-98757118D01*
X86214175Y-98448382D01*
X85951618Y-98185825D01*
X85642882Y-97979534D01*
X85299834Y-97837439D01*
X84935656Y-97765000D01*
X84564344Y-97765000D01*
X84200166Y-97837439D01*
X83857118Y-97979534D01*
X83548382Y-98185825D01*
X83285825Y-98448382D01*
X83079534Y-98757118D01*
X82937439Y-99100166D01*
X82865000Y-99464344D01*
X51061517Y-99464344D01*
X51064812Y-99453482D01*
X51077072Y-99329000D01*
X51077072Y-98870445D01*
X51130886Y-98892735D01*
X51388612Y-98944000D01*
X51651388Y-98944000D01*
X51909114Y-98892735D01*
X52151886Y-98792176D01*
X52370376Y-98646186D01*
X52556186Y-98460376D01*
X52702176Y-98241886D01*
X52802735Y-97999114D01*
X52854000Y-97741388D01*
X52854000Y-97478612D01*
X52802735Y-97220886D01*
X52702176Y-96978114D01*
X52556186Y-96759624D01*
X52386562Y-96590000D01*
X52556186Y-96420376D01*
X52702176Y-96201886D01*
X52802735Y-95959114D01*
X52854000Y-95701388D01*
X52854000Y-95438612D01*
X52802735Y-95180886D01*
X52702176Y-94938114D01*
X52556186Y-94719624D01*
X52386562Y-94550000D01*
X52556186Y-94380376D01*
X52702176Y-94161886D01*
X52802735Y-93919114D01*
X52854000Y-93661388D01*
X52854000Y-93398612D01*
X52802735Y-93140886D01*
X52702176Y-92898114D01*
X52556186Y-92679624D01*
X52386562Y-92510000D01*
X52556186Y-92340376D01*
X52702176Y-92121886D01*
X52802735Y-91879114D01*
X52854000Y-91621388D01*
X52854000Y-91358612D01*
X52802735Y-91100886D01*
X52702176Y-90858114D01*
X52572704Y-90664344D01*
X82865000Y-90664344D01*
X82865000Y-91035656D01*
X82937439Y-91399834D01*
X83079534Y-91742882D01*
X83285825Y-92051618D01*
X83548382Y-92314175D01*
X83857118Y-92520466D01*
X84200166Y-92662561D01*
X84564344Y-92735000D01*
X84935656Y-92735000D01*
X85299834Y-92662561D01*
X85642882Y-92520466D01*
X85951618Y-92314175D01*
X86214175Y-92051618D01*
X86420466Y-91742882D01*
X86562561Y-91399834D01*
X86635000Y-91035656D01*
X86635000Y-90664344D01*
X86562561Y-90300166D01*
X86420466Y-89957118D01*
X86214175Y-89648382D01*
X85951618Y-89385825D01*
X85642882Y-89179534D01*
X85299834Y-89037439D01*
X84935656Y-88965000D01*
X84564344Y-88965000D01*
X84200166Y-89037439D01*
X83857118Y-89179534D01*
X83548382Y-89385825D01*
X83285825Y-89648382D01*
X83079534Y-89957118D01*
X82937439Y-90300166D01*
X82865000Y-90664344D01*
X52572704Y-90664344D01*
X52556186Y-90639624D01*
X52370376Y-90453814D01*
X52151886Y-90307824D01*
X51909114Y-90207265D01*
X51651388Y-90156000D01*
X51388612Y-90156000D01*
X51130886Y-90207265D01*
X50888114Y-90307824D01*
X50669624Y-90453814D01*
X50483814Y-90639624D01*
X50337824Y-90858114D01*
X50237265Y-91100886D01*
X50205808Y-91259032D01*
X50129114Y-91227265D01*
X49871388Y-91176000D01*
X49608612Y-91176000D01*
X49350886Y-91227265D01*
X49108114Y-91327824D01*
X48889624Y-91473814D01*
X48703814Y-91659624D01*
X48557824Y-91878114D01*
X48457265Y-92120886D01*
X48406000Y-92378612D01*
X48406000Y-92641388D01*
X48457265Y-92899114D01*
X48557824Y-93141886D01*
X48703814Y-93360376D01*
X48873438Y-93530000D01*
X48703814Y-93699624D01*
X48557824Y-93918114D01*
X48457265Y-94160886D01*
X48406000Y-94418612D01*
X48406000Y-94681388D01*
X48457265Y-94939114D01*
X48557824Y-95181886D01*
X48703814Y-95400376D01*
X48873438Y-95570000D01*
X48703814Y-95739624D01*
X48557824Y-95958114D01*
X48457265Y-96200886D01*
X48406000Y-96458612D01*
X48406000Y-96721388D01*
X48457265Y-96979114D01*
X48557824Y-97221886D01*
X48680460Y-97405425D01*
X48589815Y-97479815D01*
X48510463Y-97576506D01*
X48451498Y-97686820D01*
X48415188Y-97806518D01*
X48402928Y-97931000D01*
X48402928Y-99329000D01*
X48415188Y-99453482D01*
X48430560Y-99504155D01*
X48270511Y-99397214D01*
X47859218Y-99226851D01*
X47422591Y-99140000D01*
X46977409Y-99140000D01*
X46540782Y-99226851D01*
X46129489Y-99397214D01*
X45759334Y-99644544D01*
X45444544Y-99959334D01*
X45410000Y-100011033D01*
X45410000Y-90088967D01*
X45444544Y-90140666D01*
X45759334Y-90455456D01*
X46129489Y-90702786D01*
X46540782Y-90873149D01*
X46977409Y-90960000D01*
X47422591Y-90960000D01*
X47859218Y-90873149D01*
X48270511Y-90702786D01*
X48640666Y-90455456D01*
X48955456Y-90140666D01*
X49202786Y-89770511D01*
X49373149Y-89359218D01*
X49460000Y-88922591D01*
X49460000Y-88477409D01*
X49373149Y-88040782D01*
X49202786Y-87629489D01*
X48955456Y-87259334D01*
X48640666Y-86944544D01*
X48270511Y-86697214D01*
X47859218Y-86526851D01*
X47422591Y-86440000D01*
X46977409Y-86440000D01*
X46540782Y-86526851D01*
X46129489Y-86697214D01*
X45759334Y-86944544D01*
X45444544Y-87259334D01*
X45410000Y-87311033D01*
X45410000Y-67410000D01*
X60840000Y-67410000D01*
X60840001Y-70782419D01*
G37*
X60840001Y-70782419D02*
X60842988Y-70812744D01*
X60842813Y-70837743D01*
X60843713Y-70846914D01*
X60925315Y-71623302D01*
X60937338Y-71681871D01*
X60948551Y-71740657D01*
X60951215Y-71749479D01*
X61182063Y-72495229D01*
X61205238Y-72550359D01*
X61227652Y-72605838D01*
X61231979Y-72613974D01*
X61603282Y-73300684D01*
X61636727Y-73350268D01*
X61669487Y-73400331D01*
X61675311Y-73407472D01*
X62172924Y-74008983D01*
X62215376Y-74051140D01*
X62257223Y-74093873D01*
X62264318Y-74099741D01*
X62264324Y-74099747D01*
X62264331Y-74099751D01*
X62869294Y-74593148D01*
X62919087Y-74626230D01*
X62968476Y-74660048D01*
X62976583Y-74664430D01*
X63665867Y-75030930D01*
X63721182Y-75053729D01*
X63776154Y-75077290D01*
X63784957Y-75080015D01*
X64532302Y-75305652D01*
X64591011Y-75317277D01*
X64649494Y-75329708D01*
X64658657Y-75330671D01*
X64658659Y-75330671D01*
X65435596Y-75406850D01*
X65464418Y-75406850D01*
X65493077Y-75409964D01*
X65502293Y-75409996D01*
X65530217Y-75409899D01*
X65558905Y-75406985D01*
X65587743Y-75407187D01*
X65596914Y-75406287D01*
X66373302Y-75324685D01*
X66431871Y-75312662D01*
X66490657Y-75301449D01*
X66499479Y-75298785D01*
X67245229Y-75067937D01*
X67300359Y-75044762D01*
X67355838Y-75022348D01*
X67363974Y-75018021D01*
X68050684Y-74646718D01*
X68100268Y-74613273D01*
X68150331Y-74580513D01*
X68157472Y-74574689D01*
X68758983Y-74077076D01*
X68801140Y-74034624D01*
X68843873Y-73992777D01*
X68849741Y-73985682D01*
X68849747Y-73985676D01*
X68849751Y-73985669D01*
X69343148Y-73380706D01*
X69376230Y-73330913D01*
X69410048Y-73281524D01*
X69414430Y-73273417D01*
X69780930Y-72584133D01*
X69803729Y-72528818D01*
X69827290Y-72473846D01*
X69830015Y-72465043D01*
X70055652Y-71717698D01*
X70067277Y-71658989D01*
X70079708Y-71600506D01*
X70080671Y-71591341D01*
X70156850Y-70814404D01*
X70156850Y-70814402D01*
X70160000Y-70782419D01*
X70160000Y-67410000D01*
X101840000Y-67410000D01*
X101840001Y-70782419D01*
X101842988Y-70812744D01*
X101842813Y-70837743D01*
X101843713Y-70846914D01*
X101925315Y-71623302D01*
X101937338Y-71681871D01*
X101948551Y-71740657D01*
X101951215Y-71749479D01*
X102182063Y-72495229D01*
X102205238Y-72550359D01*
X102227652Y-72605838D01*
X102231979Y-72613974D01*
X102603282Y-73300684D01*
X102636727Y-73350268D01*
X102669487Y-73400331D01*
X102675311Y-73407472D01*
X103172924Y-74008983D01*
X103215376Y-74051140D01*
X103257223Y-74093873D01*
X103264318Y-74099741D01*
X103264324Y-74099747D01*
X103264331Y-74099751D01*
X103869294Y-74593148D01*
X103919087Y-74626230D01*
X103968476Y-74660048D01*
X103976583Y-74664430D01*
X104665867Y-75030930D01*
X104721182Y-75053729D01*
X104776154Y-75077290D01*
X104784957Y-75080015D01*
X105532302Y-75305652D01*
X105591011Y-75317277D01*
X105649494Y-75329708D01*
X105658657Y-75330671D01*
X105658659Y-75330671D01*
X106435596Y-75406850D01*
X106464418Y-75406850D01*
X106493077Y-75409964D01*
X106502293Y-75409996D01*
X106530217Y-75409899D01*
X106558905Y-75406985D01*
X106587743Y-75407187D01*
X106596914Y-75406287D01*
X107373302Y-75324685D01*
X107431871Y-75312662D01*
X107490657Y-75301449D01*
X107499479Y-75298785D01*
X108245229Y-75067937D01*
X108300359Y-75044762D01*
X108355838Y-75022348D01*
X108363974Y-75018021D01*
X109050684Y-74646718D01*
X109100268Y-74613273D01*
X109150331Y-74580513D01*
X109157472Y-74574689D01*
X109758983Y-74077076D01*
X109801140Y-74034624D01*
X109843873Y-73992777D01*
X109849741Y-73985682D01*
X109849747Y-73985676D01*
X109849751Y-73985669D01*
X110343148Y-73380706D01*
X110376230Y-73330913D01*
X110410048Y-73281524D01*
X110414430Y-73273417D01*
X110780930Y-72584133D01*
X110803729Y-72528818D01*
X110827290Y-72473846D01*
X110830015Y-72465043D01*
X111055652Y-71717698D01*
X111067277Y-71658989D01*
X111079708Y-71600506D01*
X111080671Y-71591341D01*
X111156850Y-70814404D01*
X111156850Y-70814402D01*
X111160000Y-70782419D01*
X111160000Y-67410000D01*
X126590000Y-67410000D01*
X126590000Y-87216135D01*
X126585456Y-87209334D01*
X126270666Y-86894544D01*
X125900511Y-86647214D01*
X125489218Y-86476851D01*
X125052591Y-86390000D01*
X124607409Y-86390000D01*
X124170782Y-86476851D01*
X123759489Y-86647214D01*
X123389334Y-86894544D01*
X123074544Y-87209334D01*
X122827214Y-87579489D01*
X122656851Y-87990782D01*
X122570000Y-88427409D01*
X122570000Y-88872591D01*
X122656851Y-89309218D01*
X122827214Y-89720511D01*
X123074544Y-90090666D01*
X123075306Y-90091428D01*
X122989000Y-90082928D01*
X121591000Y-90082928D01*
X121466518Y-90095188D01*
X121346820Y-90131498D01*
X121236506Y-90190463D01*
X121139815Y-90269815D01*
X121060463Y-90366506D01*
X121001498Y-90476820D01*
X120965188Y-90596518D01*
X120952928Y-90721000D01*
X120952928Y-91179555D01*
X120899114Y-91157265D01*
X120641388Y-91106000D01*
X120378612Y-91106000D01*
X120120886Y-91157265D01*
X119878114Y-91257824D01*
X119659624Y-91403814D01*
X119473814Y-91589624D01*
X119327824Y-91808114D01*
X119227265Y-92050886D01*
X119176000Y-92308612D01*
X119176000Y-92571388D01*
X119227265Y-92829114D01*
X119327824Y-93071886D01*
X119473814Y-93290376D01*
X119643438Y-93460000D01*
X119473814Y-93629624D01*
X119327824Y-93848114D01*
X119227265Y-94090886D01*
X119176000Y-94348612D01*
X119176000Y-94611388D01*
X119227265Y-94869114D01*
X119327824Y-95111886D01*
X119473814Y-95330376D01*
X119643438Y-95500000D01*
X119473814Y-95669624D01*
X119327824Y-95888114D01*
X119227265Y-96130886D01*
X119176000Y-96388612D01*
X119176000Y-96651388D01*
X119227265Y-96909114D01*
X119327824Y-97151886D01*
X119473814Y-97370376D01*
X119643438Y-97540000D01*
X119473814Y-97709624D01*
X119327824Y-97928114D01*
X119227265Y-98170886D01*
X119176000Y-98428612D01*
X119176000Y-98691388D01*
X119227265Y-98949114D01*
X119327824Y-99191886D01*
X119473814Y-99410376D01*
X119659624Y-99596186D01*
X119878114Y-99742176D01*
X120120886Y-99842735D01*
X120378612Y-99894000D01*
X120641388Y-99894000D01*
X120899114Y-99842735D01*
X121141886Y-99742176D01*
X121360376Y-99596186D01*
X121546186Y-99410376D01*
X121692176Y-99191886D01*
X121792735Y-98949114D01*
X121824192Y-98790968D01*
X121900886Y-98822735D01*
X122158612Y-98874000D01*
X122421388Y-98874000D01*
X122679114Y-98822735D01*
X122921886Y-98722176D01*
X123140376Y-98576186D01*
X123326186Y-98390376D01*
X123472176Y-98171886D01*
X123572735Y-97929114D01*
X123624000Y-97671388D01*
X123624000Y-97408612D01*
X123572735Y-97150886D01*
X123472176Y-96908114D01*
X123326186Y-96689624D01*
X123156562Y-96520000D01*
X123326186Y-96350376D01*
X123472176Y-96131886D01*
X123572735Y-95889114D01*
X123624000Y-95631388D01*
X123624000Y-95368612D01*
X123572735Y-95110886D01*
X123472176Y-94868114D01*
X123326186Y-94649624D01*
X123156562Y-94480000D01*
X123326186Y-94310376D01*
X123472176Y-94091886D01*
X123572735Y-93849114D01*
X123624000Y-93591388D01*
X123624000Y-93328612D01*
X123572735Y-93070886D01*
X123472176Y-92828114D01*
X123349540Y-92644575D01*
X123440185Y-92570185D01*
X123519537Y-92473494D01*
X123578502Y-92363180D01*
X123614812Y-92243482D01*
X123627072Y-92119000D01*
X123627072Y-90721000D01*
X123614812Y-90596518D01*
X123599440Y-90545845D01*
X123759489Y-90652786D01*
X124170782Y-90823149D01*
X124607409Y-90910000D01*
X125052591Y-90910000D01*
X125489218Y-90823149D01*
X125900511Y-90652786D01*
X126270666Y-90405456D01*
X126585456Y-90090666D01*
X126590000Y-90083865D01*
X126590001Y-99916135D01*
X126585456Y-99909334D01*
X126270666Y-99594544D01*
X125900511Y-99347214D01*
X125489218Y-99176851D01*
X125052591Y-99090000D01*
X124607409Y-99090000D01*
X124170782Y-99176851D01*
X123759489Y-99347214D01*
X123389334Y-99594544D01*
X123074544Y-99909334D01*
X122827214Y-100279489D01*
X122656851Y-100690782D01*
X122570000Y-101127409D01*
X122570000Y-101572591D01*
X122656851Y-102009218D01*
X122827214Y-102420511D01*
X123074544Y-102790666D01*
X123389334Y-103105456D01*
X123759489Y-103352786D01*
X124170782Y-103523149D01*
X124607409Y-103610000D01*
X125052591Y-103610000D01*
X125489218Y-103523149D01*
X125900511Y-103352786D01*
X126270666Y-103105456D01*
X126585456Y-102790666D01*
X126590001Y-102783864D01*
X126590001Y-122590000D01*
X111160000Y-122590000D01*
X111160000Y-119217581D01*
X111157012Y-119187247D01*
X111157187Y-119162257D01*
X111156287Y-119153086D01*
X111074685Y-118376699D01*
X111062658Y-118318106D01*
X111051448Y-118259342D01*
X111048785Y-118250520D01*
X110817937Y-117504771D01*
X110794749Y-117449608D01*
X110772347Y-117394162D01*
X110768021Y-117386026D01*
X110396718Y-116699316D01*
X110363279Y-116649741D01*
X110330514Y-116599670D01*
X110324689Y-116592529D01*
X109827076Y-115991017D01*
X109784621Y-115948858D01*
X109742776Y-115906127D01*
X109735676Y-115900253D01*
X109130705Y-115406852D01*
X109080904Y-115373764D01*
X109031524Y-115339953D01*
X109023418Y-115335570D01*
X108334133Y-114969071D01*
X108278839Y-114946280D01*
X108223846Y-114922710D01*
X108215043Y-114919985D01*
X107467698Y-114694348D01*
X107408995Y-114682725D01*
X107350506Y-114670292D01*
X107341342Y-114669329D01*
X106564404Y-114593150D01*
X106535582Y-114593150D01*
X106506922Y-114590036D01*
X106497707Y-114590004D01*
X106469782Y-114590101D01*
X106441095Y-114593014D01*
X106412257Y-114592813D01*
X106403086Y-114593713D01*
X105626699Y-114675315D01*
X105568106Y-114687342D01*
X105509342Y-114698552D01*
X105500520Y-114701215D01*
X104754771Y-114932063D01*
X104699608Y-114955251D01*
X104644162Y-114977653D01*
X104636026Y-114981979D01*
X103949316Y-115353282D01*
X103899741Y-115386721D01*
X103849670Y-115419486D01*
X103842529Y-115425311D01*
X103241017Y-115922924D01*
X103198863Y-115965374D01*
X103156127Y-116007224D01*
X103150253Y-116014324D01*
X102656852Y-116619295D01*
X102623764Y-116669096D01*
X102589953Y-116718476D01*
X102585570Y-116726582D01*
X102219071Y-117415867D01*
X102196280Y-117471161D01*
X102172710Y-117526154D01*
X102169985Y-117534957D01*
X101944348Y-118282302D01*
X101932725Y-118341005D01*
X101920292Y-118399494D01*
X101919329Y-118408658D01*
X101843150Y-119185596D01*
X101843150Y-119185608D01*
X101840001Y-119217581D01*
X101840000Y-122590000D01*
X70160000Y-122590000D01*
X70160000Y-119217581D01*
X70157012Y-119187247D01*
X70157187Y-119162257D01*
X70156287Y-119153086D01*
X70074685Y-118376699D01*
X70062658Y-118318106D01*
X70051448Y-118259342D01*
X70048785Y-118250520D01*
X69817937Y-117504771D01*
X69794749Y-117449608D01*
X69772347Y-117394162D01*
X69768021Y-117386026D01*
X69396718Y-116699316D01*
X69363279Y-116649741D01*
X69330514Y-116599670D01*
X69324689Y-116592529D01*
X68827076Y-115991017D01*
X68784621Y-115948858D01*
X68742776Y-115906127D01*
X68735676Y-115900253D01*
X68130705Y-115406852D01*
X68080904Y-115373764D01*
X68031524Y-115339953D01*
X68023418Y-115335570D01*
X67334133Y-114969071D01*
X67278839Y-114946280D01*
X67223846Y-114922710D01*
X67215043Y-114919985D01*
X66467698Y-114694348D01*
X66408995Y-114682725D01*
X66350506Y-114670292D01*
X66341342Y-114669329D01*
X65564404Y-114593150D01*
X65535582Y-114593150D01*
X65506922Y-114590036D01*
X65497707Y-114590004D01*
X65469782Y-114590101D01*
X65441095Y-114593014D01*
X65412257Y-114592813D01*
X65403086Y-114593713D01*
X64626699Y-114675315D01*
X64568106Y-114687342D01*
X64509342Y-114698552D01*
X64500520Y-114701215D01*
X63754771Y-114932063D01*
X63699608Y-114955251D01*
X63644162Y-114977653D01*
X63636026Y-114981979D01*
X62949316Y-115353282D01*
X62899741Y-115386721D01*
X62849670Y-115419486D01*
X62842529Y-115425311D01*
X62241017Y-115922924D01*
X62198863Y-115965374D01*
X62156127Y-116007224D01*
X62150253Y-116014324D01*
X61656852Y-116619295D01*
X61623764Y-116669096D01*
X61589953Y-116718476D01*
X61585570Y-116726582D01*
X61219071Y-117415867D01*
X61196280Y-117471161D01*
X61172710Y-117526154D01*
X61169985Y-117534957D01*
X60944348Y-118282302D01*
X60932725Y-118341005D01*
X60920292Y-118399494D01*
X60919329Y-118408658D01*
X60843150Y-119185596D01*
X60843150Y-119185608D01*
X60840001Y-119217581D01*
X60840000Y-122590000D01*
X45410000Y-122590000D01*
X45410000Y-102788967D01*
X45444544Y-102840666D01*
X45759334Y-103155456D01*
X46129489Y-103402786D01*
X46540782Y-103573149D01*
X46977409Y-103660000D01*
X47422591Y-103660000D01*
X47859218Y-103573149D01*
X48270511Y-103402786D01*
X48640666Y-103155456D01*
X48955456Y-102840666D01*
X49202786Y-102470511D01*
X49373149Y-102059218D01*
X49460000Y-101622591D01*
X49460000Y-101177409D01*
X49373149Y-100740782D01*
X49202786Y-100329489D01*
X48955456Y-99959334D01*
X48954694Y-99958572D01*
X49041000Y-99967072D01*
X50439000Y-99967072D01*
X50563482Y-99954812D01*
X50683180Y-99918502D01*
X50793494Y-99859537D01*
X50890185Y-99780185D01*
X50969537Y-99683494D01*
X51028502Y-99573180D01*
X51061517Y-99464344D01*
X82865000Y-99464344D01*
X82865000Y-99835656D01*
X82937439Y-100199834D01*
X83079534Y-100542882D01*
X83285825Y-100851618D01*
X83548382Y-101114175D01*
X83857118Y-101320466D01*
X84200166Y-101462561D01*
X84564344Y-101535000D01*
X84935656Y-101535000D01*
X85299834Y-101462561D01*
X85642882Y-101320466D01*
X85951618Y-101114175D01*
X86214175Y-100851618D01*
X86420466Y-100542882D01*
X86562561Y-100199834D01*
X86635000Y-99835656D01*
X86635000Y-99464344D01*
X86562561Y-99100166D01*
X86420466Y-98757118D01*
X86214175Y-98448382D01*
X85951618Y-98185825D01*
X85642882Y-97979534D01*
X85299834Y-97837439D01*
X84935656Y-97765000D01*
X84564344Y-97765000D01*
X84200166Y-97837439D01*
X83857118Y-97979534D01*
X83548382Y-98185825D01*
X83285825Y-98448382D01*
X83079534Y-98757118D01*
X82937439Y-99100166D01*
X82865000Y-99464344D01*
X51061517Y-99464344D01*
X51064812Y-99453482D01*
X51077072Y-99329000D01*
X51077072Y-98870445D01*
X51130886Y-98892735D01*
X51388612Y-98944000D01*
X51651388Y-98944000D01*
X51909114Y-98892735D01*
X52151886Y-98792176D01*
X52370376Y-98646186D01*
X52556186Y-98460376D01*
X52702176Y-98241886D01*
X52802735Y-97999114D01*
X52854000Y-97741388D01*
X52854000Y-97478612D01*
X52802735Y-97220886D01*
X52702176Y-96978114D01*
X52556186Y-96759624D01*
X52386562Y-96590000D01*
X52556186Y-96420376D01*
X52702176Y-96201886D01*
X52802735Y-95959114D01*
X52854000Y-95701388D01*
X52854000Y-95438612D01*
X52802735Y-95180886D01*
X52702176Y-94938114D01*
X52556186Y-94719624D01*
X52386562Y-94550000D01*
X52556186Y-94380376D01*
X52702176Y-94161886D01*
X52802735Y-93919114D01*
X52854000Y-93661388D01*
X52854000Y-93398612D01*
X52802735Y-93140886D01*
X52702176Y-92898114D01*
X52556186Y-92679624D01*
X52386562Y-92510000D01*
X52556186Y-92340376D01*
X52702176Y-92121886D01*
X52802735Y-91879114D01*
X52854000Y-91621388D01*
X52854000Y-91358612D01*
X52802735Y-91100886D01*
X52702176Y-90858114D01*
X52572704Y-90664344D01*
X82865000Y-90664344D01*
X82865000Y-91035656D01*
X82937439Y-91399834D01*
X83079534Y-91742882D01*
X83285825Y-92051618D01*
X83548382Y-92314175D01*
X83857118Y-92520466D01*
X84200166Y-92662561D01*
X84564344Y-92735000D01*
X84935656Y-92735000D01*
X85299834Y-92662561D01*
X85642882Y-92520466D01*
X85951618Y-92314175D01*
X86214175Y-92051618D01*
X86420466Y-91742882D01*
X86562561Y-91399834D01*
X86635000Y-91035656D01*
X86635000Y-90664344D01*
X86562561Y-90300166D01*
X86420466Y-89957118D01*
X86214175Y-89648382D01*
X85951618Y-89385825D01*
X85642882Y-89179534D01*
X85299834Y-89037439D01*
X84935656Y-88965000D01*
X84564344Y-88965000D01*
X84200166Y-89037439D01*
X83857118Y-89179534D01*
X83548382Y-89385825D01*
X83285825Y-89648382D01*
X83079534Y-89957118D01*
X82937439Y-90300166D01*
X82865000Y-90664344D01*
X52572704Y-90664344D01*
X52556186Y-90639624D01*
X52370376Y-90453814D01*
X52151886Y-90307824D01*
X51909114Y-90207265D01*
X51651388Y-90156000D01*
X51388612Y-90156000D01*
X51130886Y-90207265D01*
X50888114Y-90307824D01*
X50669624Y-90453814D01*
X50483814Y-90639624D01*
X50337824Y-90858114D01*
X50237265Y-91100886D01*
X50205808Y-91259032D01*
X50129114Y-91227265D01*
X49871388Y-91176000D01*
X49608612Y-91176000D01*
X49350886Y-91227265D01*
X49108114Y-91327824D01*
X48889624Y-91473814D01*
X48703814Y-91659624D01*
X48557824Y-91878114D01*
X48457265Y-92120886D01*
X48406000Y-92378612D01*
X48406000Y-92641388D01*
X48457265Y-92899114D01*
X48557824Y-93141886D01*
X48703814Y-93360376D01*
X48873438Y-93530000D01*
X48703814Y-93699624D01*
X48557824Y-93918114D01*
X48457265Y-94160886D01*
X48406000Y-94418612D01*
X48406000Y-94681388D01*
X48457265Y-94939114D01*
X48557824Y-95181886D01*
X48703814Y-95400376D01*
X48873438Y-95570000D01*
X48703814Y-95739624D01*
X48557824Y-95958114D01*
X48457265Y-96200886D01*
X48406000Y-96458612D01*
X48406000Y-96721388D01*
X48457265Y-96979114D01*
X48557824Y-97221886D01*
X48680460Y-97405425D01*
X48589815Y-97479815D01*
X48510463Y-97576506D01*
X48451498Y-97686820D01*
X48415188Y-97806518D01*
X48402928Y-97931000D01*
X48402928Y-99329000D01*
X48415188Y-99453482D01*
X48430560Y-99504155D01*
X48270511Y-99397214D01*
X47859218Y-99226851D01*
X47422591Y-99140000D01*
X46977409Y-99140000D01*
X46540782Y-99226851D01*
X46129489Y-99397214D01*
X45759334Y-99644544D01*
X45444544Y-99959334D01*
X45410000Y-100011033D01*
X45410000Y-90088967D01*
X45444544Y-90140666D01*
X45759334Y-90455456D01*
X46129489Y-90702786D01*
X46540782Y-90873149D01*
X46977409Y-90960000D01*
X47422591Y-90960000D01*
X47859218Y-90873149D01*
X48270511Y-90702786D01*
X48640666Y-90455456D01*
X48955456Y-90140666D01*
X49202786Y-89770511D01*
X49373149Y-89359218D01*
X49460000Y-88922591D01*
X49460000Y-88477409D01*
X49373149Y-88040782D01*
X49202786Y-87629489D01*
X48955456Y-87259334D01*
X48640666Y-86944544D01*
X48270511Y-86697214D01*
X47859218Y-86526851D01*
X47422591Y-86440000D01*
X46977409Y-86440000D01*
X46540782Y-86526851D01*
X46129489Y-86697214D01*
X45759334Y-86944544D01*
X45444544Y-87259334D01*
X45410000Y-87311033D01*
X45410000Y-67410000D01*
X60840000Y-67410000D01*
X60840001Y-70782419D01*
M02*
