G04 #@! TF.GenerationSoftware,KiCad,Pcbnew,5.1.5-1.fc31*
G04 #@! TF.CreationDate,2020-04-27T21:51:01+02:00*
G04 #@! TF.ProjectId,vdsl-surge-protection-copy,7664736c-2d73-4757-9267-652d70726f74,rev?*
G04 #@! TF.SameCoordinates,Original*
G04 #@! TF.FileFunction,Profile,NP*
%FSLAX46Y46*%
G04 Gerber Fmt 4.6, Leading zero omitted, Abs format (unit mm)*
G04 Created by KiCad (PCBNEW 5.1.5-1.fc31) date 2020-04-27 21:51:01*
%MOMM*%
%LPD*%
G04 APERTURE LIST*
%ADD10C,0.050000*%
G04 APERTURE END LIST*
D10*
X61500000Y-123250000D02*
X44750000Y-123250000D01*
X102500000Y-123250000D02*
X69500000Y-123250000D01*
X110500000Y-123250000D02*
X127250000Y-123250000D01*
X110500000Y-66750000D02*
X127250000Y-66750000D01*
X102500000Y-66750000D02*
X69500000Y-66750000D01*
X61500000Y-123250000D02*
X61500000Y-119250000D01*
X65500000Y-115250000D02*
G75*
G02X69500000Y-119250000I0J-4000000D01*
G01*
X61500000Y-119250000D02*
G75*
G02X65500000Y-115250000I4000000J0D01*
G01*
X69500000Y-123250000D02*
X69500000Y-119250000D01*
X102500000Y-123250000D02*
X102500000Y-119250000D01*
X106500000Y-115250000D02*
G75*
G02X110500000Y-119250000I0J-4000000D01*
G01*
X102500000Y-119250000D02*
G75*
G02X106500000Y-115250000I4000000J0D01*
G01*
X110500000Y-123250000D02*
X110500000Y-119250000D01*
X110500000Y-70750000D02*
G75*
G02X106500000Y-74750000I-4000000J0D01*
G01*
X102500000Y-66750000D02*
X102500000Y-70750000D01*
X106500000Y-74750000D02*
G75*
G02X102500000Y-70750000I0J4000000D01*
G01*
X110500000Y-66750000D02*
X110500000Y-70750000D01*
X61500000Y-66750000D02*
X44750000Y-66750000D01*
X65500000Y-74750000D02*
G75*
G02X61500000Y-70750000I0J4000000D01*
G01*
X69500000Y-70750000D02*
G75*
G02X65500000Y-74750000I-4000000J0D01*
G01*
X69500000Y-66750000D02*
X69500000Y-70750000D01*
X61500000Y-66750000D02*
X61500000Y-70750000D01*
X127250000Y-66750000D02*
X127250000Y-123250000D01*
X44750000Y-66750000D02*
X44750000Y-123250000D01*
M02*
