G04 #@! TF.GenerationSoftware,KiCad,Pcbnew,5.1.5-1.fc31*
G04 #@! TF.CreationDate,2020-04-27T22:00:39+02:00*
G04 #@! TF.ProjectId,vdsl-surge-protection-copy,7664736c-2d73-4757-9267-652d70726f74,rev?*
G04 #@! TF.SameCoordinates,Original*
G04 #@! TF.FileFunction,Legend,Top*
G04 #@! TF.FilePolarity,Positive*
%FSLAX46Y46*%
G04 Gerber Fmt 4.6, Leading zero omitted, Abs format (unit mm)*
G04 Created by KiCad (PCBNEW 5.1.5-1.fc31) date 2020-04-27 22:00:39*
%MOMM*%
%LPD*%
G04 APERTURE LIST*
%ADD10C,0.300000*%
%ADD11C,0.250000*%
G04 APERTURE END LIST*
D10*
X211500000Y-75254761D02*
X211500000Y-73921428D01*
X211500000Y-74111904D02*
X211571428Y-74016666D01*
X211714285Y-73921428D01*
X211928571Y-73921428D01*
X212071428Y-74016666D01*
X212142857Y-74207142D01*
X212142857Y-75254761D01*
X212142857Y-74207142D02*
X212214285Y-74016666D01*
X212357142Y-73921428D01*
X212571428Y-73921428D01*
X212714285Y-74016666D01*
X212785714Y-74207142D01*
X212785714Y-75254761D01*
X214142857Y-75254761D02*
X214142857Y-74207142D01*
X214071428Y-74016666D01*
X213928571Y-73921428D01*
X213642857Y-73921428D01*
X213500000Y-74016666D01*
X214142857Y-75159523D02*
X214000000Y-75254761D01*
X213642857Y-75254761D01*
X213500000Y-75159523D01*
X213428571Y-74969047D01*
X213428571Y-74778571D01*
X213500000Y-74588095D01*
X213642857Y-74492857D01*
X214000000Y-74492857D01*
X214142857Y-74397619D01*
X214714285Y-75254761D02*
X215500000Y-73921428D01*
X214714285Y-73921428D02*
X215500000Y-75254761D01*
X216071428Y-75064285D02*
X216142857Y-75159523D01*
X216071428Y-75254761D01*
X216000000Y-75159523D01*
X216071428Y-75064285D01*
X216071428Y-75254761D01*
X218571428Y-73254761D02*
X218285714Y-73254761D01*
X218142857Y-73350000D01*
X218071428Y-73445238D01*
X217928571Y-73730952D01*
X217857142Y-74111904D01*
X217857142Y-74873809D01*
X217928571Y-75064285D01*
X218000000Y-75159523D01*
X218142857Y-75254761D01*
X218428571Y-75254761D01*
X218571428Y-75159523D01*
X218642857Y-75064285D01*
X218714285Y-74873809D01*
X218714285Y-74397619D01*
X218642857Y-74207142D01*
X218571428Y-74111904D01*
X218428571Y-74016666D01*
X218142857Y-74016666D01*
X218000000Y-74111904D01*
X217928571Y-74207142D01*
X217857142Y-74397619D01*
X219642857Y-73254761D02*
X219785714Y-73254761D01*
X219928571Y-73350000D01*
X220000000Y-73445238D01*
X220071428Y-73635714D01*
X220142857Y-74016666D01*
X220142857Y-74492857D01*
X220071428Y-74873809D01*
X220000000Y-75064285D01*
X219928571Y-75159523D01*
X219785714Y-75254761D01*
X219642857Y-75254761D01*
X219500000Y-75159523D01*
X219428571Y-75064285D01*
X219357142Y-74873809D01*
X219285714Y-74492857D01*
X219285714Y-74016666D01*
X219357142Y-73635714D01*
X219428571Y-73445238D01*
X219500000Y-73350000D01*
X219642857Y-73254761D01*
X221714285Y-73254761D02*
X222214285Y-75254761D01*
X222714285Y-73254761D01*
X223214285Y-75254761D02*
X223214285Y-73254761D01*
X223571428Y-73254761D01*
X223785714Y-73350000D01*
X223928571Y-73540476D01*
X224000000Y-73730952D01*
X224071428Y-74111904D01*
X224071428Y-74397619D01*
X224000000Y-74778571D01*
X223928571Y-74969047D01*
X223785714Y-75159523D01*
X223571428Y-75254761D01*
X223214285Y-75254761D01*
X225571428Y-75064285D02*
X225500000Y-75159523D01*
X225285714Y-75254761D01*
X225142857Y-75254761D01*
X224928571Y-75159523D01*
X224785714Y-74969047D01*
X224714285Y-74778571D01*
X224642857Y-74397619D01*
X224642857Y-74111904D01*
X224714285Y-73730952D01*
X224785714Y-73540476D01*
X224928571Y-73350000D01*
X225142857Y-73254761D01*
X225285714Y-73254761D01*
X225500000Y-73350000D01*
X225571428Y-73445238D01*
X212142857Y-78554761D02*
X212142857Y-77221428D01*
X212142857Y-76554761D02*
X212071428Y-76650000D01*
X212142857Y-76745238D01*
X212214285Y-76650000D01*
X212142857Y-76554761D01*
X212142857Y-76745238D01*
X213500000Y-78554761D02*
X213500000Y-76554761D01*
X213500000Y-78459523D02*
X213357142Y-78554761D01*
X213071428Y-78554761D01*
X212928571Y-78459523D01*
X212857142Y-78364285D01*
X212785714Y-78173809D01*
X212785714Y-77602380D01*
X212857142Y-77411904D01*
X212928571Y-77316666D01*
X213071428Y-77221428D01*
X213357142Y-77221428D01*
X213500000Y-77316666D01*
X214428571Y-78554761D02*
X214285714Y-78459523D01*
X214214285Y-78269047D01*
X214214285Y-76554761D01*
X215571428Y-78459523D02*
X215428571Y-78554761D01*
X215142857Y-78554761D01*
X215000000Y-78459523D01*
X214928571Y-78269047D01*
X214928571Y-77507142D01*
X215000000Y-77316666D01*
X215142857Y-77221428D01*
X215428571Y-77221428D01*
X215571428Y-77316666D01*
X215642857Y-77507142D01*
X215642857Y-77697619D01*
X214928571Y-77888095D01*
X217285714Y-77221428D02*
X217642857Y-78554761D01*
X218000000Y-77221428D01*
X218785714Y-78554761D02*
X218642857Y-78459523D01*
X218571428Y-78364285D01*
X218500000Y-78173809D01*
X218500000Y-77602380D01*
X218571428Y-77411904D01*
X218642857Y-77316666D01*
X218785714Y-77221428D01*
X219000000Y-77221428D01*
X219142857Y-77316666D01*
X219214285Y-77411904D01*
X219285714Y-77602380D01*
X219285714Y-78173809D01*
X219214285Y-78364285D01*
X219142857Y-78459523D01*
X219000000Y-78554761D01*
X218785714Y-78554761D01*
X220142857Y-78554761D02*
X220000000Y-78459523D01*
X219928571Y-78269047D01*
X219928571Y-76554761D01*
X220500000Y-77221428D02*
X221071428Y-77221428D01*
X220714285Y-76554761D02*
X220714285Y-78269047D01*
X220785714Y-78459523D01*
X220928571Y-78554761D01*
X221071428Y-78554761D01*
X222214285Y-78554761D02*
X222214285Y-77507142D01*
X222142857Y-77316666D01*
X222000000Y-77221428D01*
X221714285Y-77221428D01*
X221571428Y-77316666D01*
X222214285Y-78459523D02*
X222071428Y-78554761D01*
X221714285Y-78554761D01*
X221571428Y-78459523D01*
X221500000Y-78269047D01*
X221500000Y-78078571D01*
X221571428Y-77888095D01*
X221714285Y-77792857D01*
X222071428Y-77792857D01*
X222214285Y-77697619D01*
X223571428Y-77221428D02*
X223571428Y-78840476D01*
X223500000Y-79030952D01*
X223428571Y-79126190D01*
X223285714Y-79221428D01*
X223071428Y-79221428D01*
X222928571Y-79126190D01*
X223571428Y-78459523D02*
X223428571Y-78554761D01*
X223142857Y-78554761D01*
X223000000Y-78459523D01*
X222928571Y-78364285D01*
X222857142Y-78173809D01*
X222857142Y-77602380D01*
X222928571Y-77411904D01*
X223000000Y-77316666D01*
X223142857Y-77221428D01*
X223428571Y-77221428D01*
X223571428Y-77316666D01*
X224857142Y-78459523D02*
X224714285Y-78554761D01*
X224428571Y-78554761D01*
X224285714Y-78459523D01*
X224214285Y-78269047D01*
X224214285Y-77507142D01*
X224285714Y-77316666D01*
X224428571Y-77221428D01*
X224714285Y-77221428D01*
X224857142Y-77316666D01*
X224928571Y-77507142D01*
X224928571Y-77697619D01*
X224214285Y-77888095D01*
D11*
X187771428Y-83928571D02*
X188228571Y-83928571D01*
X187942857Y-84928571D02*
X187942857Y-83642857D01*
X188000000Y-83500000D01*
X188114285Y-83428571D01*
X188228571Y-83428571D01*
X188628571Y-84928571D02*
X188628571Y-83928571D01*
X188628571Y-84214285D02*
X188685714Y-84071428D01*
X188742857Y-84000000D01*
X188857142Y-83928571D01*
X188971428Y-83928571D01*
X189542857Y-84928571D02*
X189428571Y-84857142D01*
X189371428Y-84785714D01*
X189314285Y-84642857D01*
X189314285Y-84214285D01*
X189371428Y-84071428D01*
X189428571Y-84000000D01*
X189542857Y-83928571D01*
X189714285Y-83928571D01*
X189828571Y-84000000D01*
X189885714Y-84071428D01*
X189942857Y-84214285D01*
X189942857Y-84642857D01*
X189885714Y-84785714D01*
X189828571Y-84857142D01*
X189714285Y-84928571D01*
X189542857Y-84928571D01*
X190457142Y-84928571D02*
X190457142Y-83928571D01*
X190457142Y-84071428D02*
X190514285Y-84000000D01*
X190628571Y-83928571D01*
X190800000Y-83928571D01*
X190914285Y-84000000D01*
X190971428Y-84142857D01*
X190971428Y-84928571D01*
X190971428Y-84142857D02*
X191028571Y-84000000D01*
X191142857Y-83928571D01*
X191314285Y-83928571D01*
X191428571Y-84000000D01*
X191485714Y-84142857D01*
X191485714Y-84928571D01*
X193142857Y-84928571D02*
X193028571Y-84857142D01*
X192971428Y-84785714D01*
X192914285Y-84642857D01*
X192914285Y-84214285D01*
X192971428Y-84071428D01*
X193028571Y-84000000D01*
X193142857Y-83928571D01*
X193314285Y-83928571D01*
X193428571Y-84000000D01*
X193485714Y-84071428D01*
X193542857Y-84214285D01*
X193542857Y-84642857D01*
X193485714Y-84785714D01*
X193428571Y-84857142D01*
X193314285Y-84928571D01*
X193142857Y-84928571D01*
X194571428Y-83928571D02*
X194571428Y-84928571D01*
X194057142Y-83928571D02*
X194057142Y-84714285D01*
X194114285Y-84857142D01*
X194228571Y-84928571D01*
X194400000Y-84928571D01*
X194514285Y-84857142D01*
X194571428Y-84785714D01*
X194971428Y-83928571D02*
X195428571Y-83928571D01*
X195142857Y-83428571D02*
X195142857Y-84714285D01*
X195200000Y-84857142D01*
X195314285Y-84928571D01*
X195428571Y-84928571D01*
X195771428Y-84857142D02*
X195885714Y-84928571D01*
X196114285Y-84928571D01*
X196228571Y-84857142D01*
X196285714Y-84714285D01*
X196285714Y-84642857D01*
X196228571Y-84500000D01*
X196114285Y-84428571D01*
X195942857Y-84428571D01*
X195828571Y-84357142D01*
X195771428Y-84214285D01*
X195771428Y-84142857D01*
X195828571Y-84000000D01*
X195942857Y-83928571D01*
X196114285Y-83928571D01*
X196228571Y-84000000D01*
X196800000Y-84928571D02*
X196800000Y-83928571D01*
X196800000Y-83428571D02*
X196742857Y-83500000D01*
X196800000Y-83571428D01*
X196857142Y-83500000D01*
X196800000Y-83428571D01*
X196800000Y-83571428D01*
X197885714Y-84928571D02*
X197885714Y-83428571D01*
X197885714Y-84857142D02*
X197771428Y-84928571D01*
X197542857Y-84928571D01*
X197428571Y-84857142D01*
X197371428Y-84785714D01*
X197314285Y-84642857D01*
X197314285Y-84214285D01*
X197371428Y-84071428D01*
X197428571Y-84000000D01*
X197542857Y-83928571D01*
X197771428Y-83928571D01*
X197885714Y-84000000D01*
X198914285Y-84857142D02*
X198800000Y-84928571D01*
X198571428Y-84928571D01*
X198457142Y-84857142D01*
X198400000Y-84714285D01*
X198400000Y-84142857D01*
X198457142Y-84000000D01*
X198571428Y-83928571D01*
X198800000Y-83928571D01*
X198914285Y-84000000D01*
X198971428Y-84142857D01*
X198971428Y-84285714D01*
X198400000Y-84428571D01*
X200742857Y-85500000D02*
X200685714Y-85428571D01*
X200571428Y-85214285D01*
X200514285Y-85071428D01*
X200457142Y-84857142D01*
X200400000Y-84500000D01*
X200400000Y-84214285D01*
X200457142Y-83857142D01*
X200514285Y-83642857D01*
X200571428Y-83500000D01*
X200685714Y-83285714D01*
X200742857Y-83214285D01*
X201714285Y-83928571D02*
X201714285Y-84928571D01*
X201200000Y-83928571D02*
X201200000Y-84714285D01*
X201257142Y-84857142D01*
X201371428Y-84928571D01*
X201542857Y-84928571D01*
X201657142Y-84857142D01*
X201714285Y-84785714D01*
X202285714Y-83928571D02*
X202285714Y-84928571D01*
X202285714Y-84071428D02*
X202342857Y-84000000D01*
X202457142Y-83928571D01*
X202628571Y-83928571D01*
X202742857Y-84000000D01*
X202800000Y-84142857D01*
X202800000Y-84928571D01*
X203371428Y-83928571D02*
X203371428Y-85428571D01*
X203371428Y-84000000D02*
X203485714Y-83928571D01*
X203714285Y-83928571D01*
X203828571Y-84000000D01*
X203885714Y-84071428D01*
X203942857Y-84214285D01*
X203942857Y-84642857D01*
X203885714Y-84785714D01*
X203828571Y-84857142D01*
X203714285Y-84928571D01*
X203485714Y-84928571D01*
X203371428Y-84857142D01*
X204457142Y-84928571D02*
X204457142Y-83928571D01*
X204457142Y-84214285D02*
X204514285Y-84071428D01*
X204571428Y-84000000D01*
X204685714Y-83928571D01*
X204800000Y-83928571D01*
X205371428Y-84928571D02*
X205257142Y-84857142D01*
X205200000Y-84785714D01*
X205142857Y-84642857D01*
X205142857Y-84214285D01*
X205200000Y-84071428D01*
X205257142Y-84000000D01*
X205371428Y-83928571D01*
X205542857Y-83928571D01*
X205657142Y-84000000D01*
X205714285Y-84071428D01*
X205771428Y-84214285D01*
X205771428Y-84642857D01*
X205714285Y-84785714D01*
X205657142Y-84857142D01*
X205542857Y-84928571D01*
X205371428Y-84928571D01*
X206114285Y-83928571D02*
X206571428Y-83928571D01*
X206285714Y-83428571D02*
X206285714Y-84714285D01*
X206342857Y-84857142D01*
X206457142Y-84928571D01*
X206571428Y-84928571D01*
X207428571Y-84857142D02*
X207314285Y-84928571D01*
X207085714Y-84928571D01*
X206971428Y-84857142D01*
X206914285Y-84714285D01*
X206914285Y-84142857D01*
X206971428Y-84000000D01*
X207085714Y-83928571D01*
X207314285Y-83928571D01*
X207428571Y-84000000D01*
X207485714Y-84142857D01*
X207485714Y-84285714D01*
X206914285Y-84428571D01*
X208514285Y-84857142D02*
X208400000Y-84928571D01*
X208171428Y-84928571D01*
X208057142Y-84857142D01*
X208000000Y-84785714D01*
X207942857Y-84642857D01*
X207942857Y-84214285D01*
X208000000Y-84071428D01*
X208057142Y-84000000D01*
X208171428Y-83928571D01*
X208400000Y-83928571D01*
X208514285Y-84000000D01*
X208857142Y-83928571D02*
X209314285Y-83928571D01*
X209028571Y-83428571D02*
X209028571Y-84714285D01*
X209085714Y-84857142D01*
X209200000Y-84928571D01*
X209314285Y-84928571D01*
X210171428Y-84857142D02*
X210057142Y-84928571D01*
X209828571Y-84928571D01*
X209714285Y-84857142D01*
X209657142Y-84714285D01*
X209657142Y-84142857D01*
X209714285Y-84000000D01*
X209828571Y-83928571D01*
X210057142Y-83928571D01*
X210171428Y-84000000D01*
X210228571Y-84142857D01*
X210228571Y-84285714D01*
X209657142Y-84428571D01*
X211257142Y-84928571D02*
X211257142Y-83428571D01*
X211257142Y-84857142D02*
X211142857Y-84928571D01*
X210914285Y-84928571D01*
X210800000Y-84857142D01*
X210742857Y-84785714D01*
X210685714Y-84642857D01*
X210685714Y-84214285D01*
X210742857Y-84071428D01*
X210800000Y-84000000D01*
X210914285Y-83928571D01*
X211142857Y-83928571D01*
X211257142Y-84000000D01*
X211714285Y-85500000D02*
X211771428Y-85428571D01*
X211885714Y-85214285D01*
X211942857Y-85071428D01*
X212000000Y-84857142D01*
X212057142Y-84500000D01*
X212057142Y-84214285D01*
X212000000Y-83857142D01*
X211942857Y-83642857D01*
X211885714Y-83500000D01*
X211771428Y-83285714D01*
X211714285Y-83214285D01*
%LPC*%
M02*
